<?xml version='1.0' encoding='utf-8'?>
<svg xmlns:inkscape="http://www.inkscape.org/namespaces/inkscape" xmlns:sodipodi="http://sodipodi.sourceforge.net/DTD/sodipodi-0.dtd" xmlns="http://www.w3.org/2000/svg" width="512" height="512" viewBox="0 0 512 512" version="1.1" id="Композиция_1" sodipodi:docname="Композиция 1" inkscape:export-xdpi="96" inkscape:export-ydpi="96" style="fill: none; stroke: none"><defs /><sodipodi:namedview inkscape:pagecheckerboard="true" borderlayer="true" bordercolor="#666666" pagecolor="#ffffff" /><g inkscape:groupmode="layer" id="Слой_1" inkscape:label="Слой 1" transform="matrix(0.32421999999999995, 0.0, 0.0, 0.32421999999999995, 256.0, 256.0)" style=""><g id="Группа_1" inkscape:label="Группа 1" transform="matrix(1.0, 0.0, 0.0, 1.0, 0.0, 0.0)" style="fill-opacity:1.0;fill:rgb(255, 255, 255);fill-rule:nonzero"><path d="M 22,-57.5 C 64.354,-55.63 85.735,-34.73 89.502,4.499 C 90.5,16.9 91.89999999999999,118.6 93.1,267 C 93.69999999999999,336.1 93.60000000000001,344.59999999999997 92.2,350.2 C 75.921,391.96799999999996 53.042,402.122 -0.298,400.499 C -27.9,400.5 -37.4,399.59999999999997 -46.4,396.2 C -66.9,388.59999999999997 -84.0,370.2 -89.2,350.2 C -90.9,343.5 -90.8,306.6 -88.5,103.5 C -87.4,11.900000000000006 -86.7,-4.6 -83.7,-13.5 C -65.712,-61.541 -26.427,-59.808 22,-57.5 Z&#10;M 1.542,-537.443 C 96.44200000000001,-537.308 189.45999999999998,-502.611 262.926,-444.241 C 336.392,-385.871 390.307,-303.828 406.999,-209 C 413.692,-233.317 411.248,368.33900000000006 412,507.021 C 396.26,548.309 335.305,518.911 300.701,492.602 C 277.0,474.79999999999995 265.2,461.5 255.9,442 C 243.70000000000002,416.5 243.9,419.0 244.3,332.5 C 244.4,292.6 244.7,255.5 245,250 C 243.69,223.296 251.033,26.197 244.702,-27.001 C 222.323,-147.03 123.215,-213.146 1.5,-208.498 C -120.184,-213.212 -219.36599999999999,-146.989 -241.7,-26.998 C -247.891,25.831999999999997 -241.041,223.743 -242.003,250 C -240.938,274.424 -241.534,423.006 -252.905,441.998 C -264.003,460.533 -274.0,474.8 -297.7,492.6 C -331.832,518.395 -389.209,526.887 -409,507 C -409,450.791 -408.6,165.5 -408.6,165.5 C -402.96200000000005,-102.351 -414.458,-160.135 -407.745,-198.899 C -365.253,-444.259 -176.478,-537.696 1.542,-537.443 Z&#10;M -32,-696.3 C -271.824,-683.7959999999999 -489.37499999999994,-511.59799999999996 -551.497,-277.996 C -566.5,-225.99999999999997 -568.9,-206.6 -568.1,-148 C -567.058,-92.447 -566.761,74.513 -566,132.5 C -565.701,161.9 -565.3,222 -565,266 C -563.821,451.185 -563.1809999999999,539.315 -562.459,581.947 C -562.0169999999999,608.01 -561.545,617.068 -560.9,620.9 C -552.0,676.648 -503.763,699.757 -444.501,698 C -236.081,698.043 -217.427,520.621 61.001,550.904 C 232.502,572.32 297.779,721.975 484.1,695.798 C 529.836,685.731 556.882,663.6179999999999 563.9,620.901 C 565.6,610.8 566.1,564.4 568,266 C 568.3,222 568.7,161.9 569,132.5 C 569.759,74.598 570.176,-92.581 571.101,-148 C 571.901,-206.6 569.5,-226 554.5,-278 C 486.632,-534.682 231.61399999999998,-714.029 -32,-696.3 Z" id="Контур_1" inkscape:label="Контур 1" style="fill-opacity:1.0;fill:rgb(255, 255, 255);fill-rule:nonzero" /></g></g><g inkscape:groupmode="layer" id="Слой-фигура_1" inkscape:label="Слой-фигура 1" transform="matrix(1.0, 0.0, 0.0, 1.0, 260.0, 262.0)" style=""><g id="Фигура_7" inkscape:label="Фигура 7" transform="matrix(1.0, 0.0, 0.0, 1.0, 135.203, 102.75)" style="stroke:rgb(255, 255, 255);stroke-opacity:1.0;stroke-width:15.0;stroke-miterlimit:0;stroke-linecap:round;stroke-linejoin:round"><path d="M 56.120000000000005,-71.58 C 56.120000000000005,-71.58 56.120000000000005,-71.58 56.120000000000005,-71.58 " style="" /></g><g id="Фигура_6" inkscape:label="Фигура 6" transform="matrix(1.0, 0.0, 0.0, 1.0, 67.289, 45.289)" style="stroke:rgb(255, 255, 255);stroke-opacity:1.0;stroke-width:15.0;stroke-miterlimit:0;stroke-linecap:round;stroke-linejoin:round"><path d="M 51.5,-55.519999999999996 C 51.5,-55.519999999999996 51.5,-55.519999999999996 51.5,-55.519999999999996 " style="" /></g><g id="Фигура_5" inkscape:label="Фигура 5" transform="matrix(1.0, 0.0, 0.0, 1.0, -290.258, -184.836)" style="stroke:rgb(255, 255, 255);stroke-opacity:1.0;stroke-width:15.0;stroke-miterlimit:0;stroke-linecap:round;stroke-linejoin:round"><path d="M 426.46,5.180000000000001 C 426.46,5.180000000000001 426.46,5.180000000000001 426.46,5.180000000000001 " style="" /></g><g id="Фигура_4" inkscape:label="Фигура 4" transform="matrix(1.0, 0.0, 0.0, 1.0, -226.984, -155.609)" style="stroke:rgb(255, 255, 255);stroke-opacity:1.0;stroke-width:15.0;stroke-miterlimit:0;stroke-linecap:round;stroke-linejoin:round"><path d="M 187.56,-32.28 C 187.56,-32.28 187.56,-32.28 187.56,-32.28 " style="" /></g><g id="Фигура_3" inkscape:label="Фигура 3" transform="matrix(1.0, 0.0, 0.0, 1.0, -174.492, -87.828)" style="stroke:rgb(255, 255, 255);stroke-opacity:1.0;stroke-width:15.0;stroke-miterlimit:0;stroke-linecap:round;stroke-linejoin:round"><path d="M 199.6,-56.42 C 199.6,-56.42 199.6,-56.42 199.6,-56.42 " style="" /></g><g id="Фигура_2" inkscape:label="Фигура 2" transform="matrix(1.0, 0.0, 0.0, 1.0, -95.75, -29.766)" style="stroke:rgb(255, 255, 255);stroke-opacity:1.0;stroke-width:15.0;stroke-miterlimit:0;stroke-linecap:round;stroke-linejoin:round"><path d="M 219.38,-92.66 C 219.38,-92.66 219.38,-92.66 219.38,-92.66 " style="" /></g><g id="Фигура_1" inkscape:label="Фигура 1" transform="matrix(1.0, 0.0, 0.0, 1.0, 0.0, 0.0)" style="stroke:rgb(255, 255, 255);stroke-opacity:1.0;stroke-width:15.0;stroke-miterlimit:0;stroke-linecap:round;stroke-linejoin:round"><path d="M 171.19,-121.38999999999999 C 171.19,-121.38999999999999 171.19,-121.38999999999999 171.19,-121.38999999999999 " style="" /></g></g></svg>