<?xml version='1.0' encoding='utf-8'?>
<svg xmlns:inkscape="http://www.inkscape.org/namespaces/inkscape" xmlns:sodipodi="http://sodipodi.sourceforge.net/DTD/sodipodi-0.dtd" xmlns="http://www.w3.org/2000/svg" width="512" height="512" viewBox="0 0 512 512" version="1.1" id="Композиция_1" sodipodi:docname="Композиция 1" inkscape:export-xdpi="96" inkscape:export-ydpi="96" style="fill: none; stroke: none"><defs /><sodipodi:namedview inkscape:pagecheckerboard="true" borderlayer="true" bordercolor="#666666" pagecolor="#ffffff" /><g inkscape:groupmode="layer" id="лого" inkscape:label="лого" transform="matrix(0.1522, 0.0, 0.0, 0.1522, 255.853, 411.94419999999997)" opacity="0.0" style=""><g id="Группа_1" inkscape:label="Группа 1" transform="matrix(1.0, 0.0, 0.0, 1.0, 0.0, 0.0)" style="fill-opacity:1.0;fill:rgb(255, 255, 255);fill-rule:nonzero"><path d="M 5.436,-15.427 C 16.667,-14.931 22.336000000000002,-9.388 23.335,1.014 C 23.6,4.302 23.971999999999998,31.269999999999996 24.29,70.621 C 24.448999999999998,88.94399999999999 24.421999999999997,91.199 24.051,92.684 C 19.733999999999998,103.75999999999999 13.667,106.45100000000001 -0.477,106.021 C -7.796,106.021 -10.315,105.783 -12.702,104.881 C -18.137999999999998,102.866 -22.671999999999997,97.987 -24.051,92.684 C -24.502,90.907 -24.474999999999998,81.122 -23.865,27.266 C -23.572999999999997,2.975999999999999 -23.389,-1.399 -22.593,-3.759 C -17.823,-16.498 -7.404999999999999,-16.038999999999998 5.436,-15.427 Z&#10;M 0.011,-142.694 C 50.34,-142.62199999999999 98.674,-105.89099999999999 107.527,-55.6 C 109.302,-62.048 108.654,97.493 108.853,134.268 C 104.67899999999999,145.216 88.515,137.421 79.339,130.444 C 73.054,125.72399999999999 69.92599999999999,122.197 67.46,117.026 C 64.225,110.264 64.277,110.92699999999999 64.383,87.99 C 64.41,77.41 64.489,67.571 64.569,66.113 C 64.22200000000001,59.032 66.169,6.767999999999999 64.49,-7.339 C 58.556,-39.167 32.275,-56.699 0,-55.467 C -32.267,-56.717 -58.568,-39.157000000000004 -64.49,-7.339 C -66.13199999999999,6.67 -64.315,59.15 -64.57,66.113 C -64.288,72.59 -64.446,111.99 -67.461,117.026 C -70.404,121.941 -73.054,125.72399999999999 -79.339,130.444 C -88.39,137.284 -103.60499999999999,139.536 -108.853,134.262 C -108.853,119.357 -108.747,43.706 -108.747,43.706 C -107.252,-27.319999999999993 -110.3,-42.643 -108.52,-52.922 C -97.252,-117.984 -47.195,-142.761 0.011,-142.694 Z&#10;M -8.883,-184.818 C -72.477,-181.502 -130.166,-135.84 -146.639,-73.896 C -150.61700000000002,-60.108000000000004 -151.254,-54.964 -151.042,-39.425 C -150.766,-24.693999999999996 -150.687,19.580000000000005 -150.485,34.956 C -150.406,42.752 -150.299,58.687999999999995 -150.219,70.356 C -149.715,149.483 -149.583,161.787 -149.132,164.465 C -146.772,179.248 -133.982,185.376 -118.267,184.91 C -62.99999999999999,184.922 -58.053000000000004,137.875 15.778,145.905 C 61.254999999999995,151.584 78.565,191.267 127.972,184.326 C 140.1,181.656 147.27100000000002,175.792 149.132,164.465 C 149.583,161.787 149.715,149.483 150.219,70.356 C 150.299,58.687999999999995 150.405,42.752 150.485,34.956 C 150.686,19.602000000000004 150.797,-24.729 151.042,-39.425 C 151.254,-54.964 150.618,-60.108000000000004 146.64,-73.897 C 128.64299999999997,-141.962 61.02000000000001,-189.519 -8.883,-184.818 Z" id="Контур_1" inkscape:label="Контур 1" style="fill-opacity:1.0;fill:rgb(255, 255, 255);fill-rule:nonzero" /></g></g><g inkscape:groupmode="layer" id="подарок" inkscape:label="подарок" transform="matrix(1.0, 0.0, 0.0, 1.0, 0.0, 0.0)" style=""><g id="Группа_9" inkscape:label="Группа 9" transform="matrix(1.0, 0.0, 0.0, 1.0, 0.0, 0.0)" style=""><g id="Группа_7" inkscape:label="Группа 7" transform="matrix(1.0, 0.0, 0.0, 1.0, 255.553, 87.968)" style="fill-opacity:1.0;fill:rgb(255, 255, 255);fill-rule:nonzero"><path d="M -146.02,48.968 C -149.79600000000002,42.028000000000006 -151.945,34.079 -151.945,25.637 C -151.945,-1.3659999999999997 -129.976,-23.331 -102.977,-23.331 C -35.352000000000004,-23.331 -18.046,24.870000000000005 -13.98,48.968 C -13.98,48.968 13.98,48.968 13.98,48.968 C 18.046,24.870000000000005 35.352000000000004,-23.331 102.977,-23.331 C 129.976,-23.331 151.945,-1.3659999999999997 151.945,25.637 C 151.945,34.079 149.799,42.028000000000006 146.02,48.968 C 146.02,48.968 173.84,48.968 173.84,48.968 C 176.264,41.624 177.582,33.782 177.582,25.637 C 177.582,-15.503 144.114,-48.968 102.977,-48.968 C 46.702000000000005,-48.968 15.623,-20.576 0.174,9.641 C -18.226,-25.18 -54.81999999999999,-48.968 -96.868,-48.968 C -96.868,-48.968 -102.977,-48.968 -102.977,-48.968 C -144.114,-48.968 -177.582,-15.503 -177.582,25.637 C -177.582,33.782 -176.26399999999998,41.624 -173.844,48.968 C -173.844,48.968 -146.02,48.968 -146.02,48.968 Z" id="path_1" inkscape:label="Контур 1" style="fill-opacity:1.0;fill:rgb(255, 255, 255);fill-rule:nonzero" /></g><g id="Группа_6" inkscape:label="Группа 6" transform="matrix(1.0, 0.0, 0.0, 1.0, 255.553, 223.447)" style="fill-opacity:1.0;fill:rgb(255, 255, 255);fill-rule:nonzero"><rect width="84.203" height="121.748" x="-42.1015" y="-60.874" rx="0.0" id="Контур_прямоугольника_1" inkscape:label="Контур прямоугольника 1" style="fill-opacity:1.0;fill:rgb(255, 255, 255);fill-rule:nonzero" /></g><g id="Группа_5" inkscape:label="Группа 5" transform="matrix(1.0, 0.0, 0.0, 1.0, 112.297, 223.447)" style="fill-opacity:1.0;fill:rgb(255, 255, 255);fill-rule:nonzero"><path d="M 75.517,60.874 C 75.517,60.874 75.517,-60.874 75.517,-60.874 C 75.517,-60.874 -35.238,-60.874 -35.238,-60.874 C -57.681,-60.874 -75.517,-42.667 -75.517,-20.595 C -75.517,-20.595 -75.517,20.595 -75.517,20.595 C -75.517,43.105000000000004 -57.236999999999995,60.874 -35.238,60.874 C -35.238,60.874 75.517,60.874 75.517,60.874 Z" id="path_2" inkscape:label="Контур 1" style="fill-opacity:1.0;fill:rgb(255, 255, 255);fill-rule:nonzero" /></g><g id="Группа_4" inkscape:label="Группа 4" transform="matrix(1.0, 0.0, 0.0, 1.0, 398.808, 223.447)" style="fill-opacity:1.0;fill:rgb(255, 255, 255);fill-rule:nonzero"><path d="M 35.238,-60.874 C 35.238,-60.874 -75.517,-60.874 -75.517,-60.874 C -75.517,-60.874 -75.517,60.874 -75.517,60.874 C -75.517,60.874 35.238,60.874 35.238,60.874 C 57.701,60.874 75.517,42.647 75.517,20.595 C 75.517,20.595 75.517,-20.595 75.517,-20.595 C 75.517,-43.054 57.293,-60.874 35.238,-60.874 Z" id="path_3" inkscape:label="Контур 1" style="fill-opacity:1.0;fill:rgb(255, 255, 255);fill-rule:nonzero" /></g></g><g id="Группа_8" inkscape:label="Группа 8" transform="matrix(1.0, 0.0, 0.0, 1.0, 0.1910000000000025, 0.3159999999999741)" style=""><g id="Группа_3" inkscape:label="Группа 3" transform="matrix(1.0, 0.0, 0.0, 1.0, 255.553, 393.252)" style="fill-opacity:1.0;fill:rgb(255, 255, 255);fill-rule:nonzero"><rect width="56.743" height="166.586" x="-28.3715" y="-83.293" rx="0.0" id="rect_4" inkscape:label="Контур прямоугольника 1" style="fill-opacity:1.0;fill:rgb(255, 255, 255);fill-rule:nonzero" /></g><g id="Группа_2" inkscape:label="Группа 2" transform="matrix(1.0, 0.0, 0.0, 1.0, 378.213, 393.252)" style="fill-opacity:1.0;fill:rgb(255, 255, 255);fill-rule:nonzero"><path d="M -68.652,83.293 C -68.652,83.293 28.373,83.293 28.373,83.293 C 50.879000000000005,83.293 68.652,65.013 68.652,43.014 C 68.652,43.014 68.652,-83.293 68.652,-83.293 C 68.652,-83.293 -68.652,-83.293 -68.652,-83.293 C -68.652,-83.293 -68.652,83.293 -68.652,83.293 Z" id="path_5" inkscape:label="Контур 1" style="fill-opacity:1.0;fill:rgb(255, 255, 255);fill-rule:nonzero" /></g><g id="g_6" inkscape:label="Группа 1" transform="matrix(1.0, 0.0, 0.0, 1.0, 132.892, 393.252)" style="fill-opacity:1.0;fill:rgb(255, 255, 255);fill-rule:nonzero"><path d="M -68.652,43.014 C -68.652,65.477 -50.422,83.293 -28.373,83.293 C -28.373,83.293 68.652,83.293 68.652,83.293 C 68.652,83.293 68.652,-83.293 68.652,-83.293 C 68.652,-83.293 -68.652,-83.293 -68.652,-83.293 C -68.652,-83.293 -68.652,43.014 -68.652,43.014 Z" id="path_7" inkscape:label="Контур 1" style="fill-opacity:1.0;fill:rgb(255, 255, 255);fill-rule:nonzero" /></g></g></g></svg>