<?xml version='1.0' encoding='utf-8'?>
<svg xmlns:inkscape="http://www.inkscape.org/namespaces/inkscape" xmlns:sodipodi="http://sodipodi.sourceforge.net/DTD/sodipodi-0.dtd" xmlns="http://www.w3.org/2000/svg" width="512" height="512" viewBox="0 0 512 512" version="1.1" id="Композиция_1" sodipodi:docname="Композиция 1" inkscape:export-xdpi="96" inkscape:export-ydpi="96" style="fill: none; stroke: none"><defs /><sodipodi:namedview inkscape:pagecheckerboard="true" borderlayer="true" bordercolor="#666666" pagecolor="#ffffff" /><g inkscape:groupmode="layer" id="лого" inkscape:label="лого" transform="matrix(0.31898, 0.0, 0.0, 0.31898, 257.5, 256.677)" style=""><g id="Группа_1" inkscape:label="Группа 1" transform="matrix(1.0, 0.0, 0.0, 1.0, 0.0, 0.0)" style="fill-opacity:1.0;fill:rgb(255, 255, 255);fill-rule:nonzero"><path d="M 20.5,-58.177 C 62.854,-56.307 84.23400000000001,-35.406 88.001,3.823 C 88.99900000000001,16.224 90.39999999999999,117.92299999999997 91.6,266.323 C 92.19999999999999,335.423 92.10000000000001,343.923 90.7,349.523 C 74.421,391.29100000000005 51.542,401.44599999999997 -1.798,399.823 C -29.4,399.82399999999996 -38.9,398.923 -47.9,395.523 C -68.4,387.923 -85.5,369.523 -90.7,349.523 C -92.4,342.82300000000004 -92.3,305.923 -90,102.823 C -88.9,11.222999999999999 -88.2,-5.276999999999999 -85.2,-14.177 C -67.212,-62.217999999999996 -27.927,-60.485 20.5,-58.177 Z&#10;M 0.041,-538.119 C 189.84,-537.849 372.11400000000003,-399.33299999999997 405.499,-209.677 C 412.192,-233.994 409.747,367.663 410.499,506.345 C 394.759,547.633 333.805,518.234 299.201,491.925 C 275.5,474.123 263.7,460.824 254.4,441.324 C 242.20000000000002,415.824 249.533,25.521 243.202,-27.677 C 220.823,-147.706 121.715,-213.823 0,-209.175 C -121.684,-213.889 -220.867,-147.666 -243.201,-27.675 C -249.392,25.154999999999998 -243.034,422.33 -254.405,441.322 C -265.503,459.857 -275.5,474.123 -299.2,491.923 C -333.332,517.718 -390.709,526.21 -410.5,506.323 C -410.5,450.114 -415.958,-160.81199999999998 -409.245,-199.576 C -366.753,-444.93600000000004 -177.979,-538.3720000000001 0.041,-538.119 Z&#10;M -33.5,-696.977 C -273.324,-684.473 -490.87499999999994,-512.275 -552.997,-278.673 C -568.0,-226.677 -570.4,-207.277 -569.6,-148.677 C -568.558,-93.124 -564.1,610.124 -562.4,620.224 C -553.5,675.9720000000001 -505.263,699.0809999999999 -446.001,697.324 C -237.581,697.367 -218.927,519.9449999999999 59.501,550.228 C 231.002,571.644 296.279,721.299 482.6,695.122 C 528.336,685.054 555.382,662.941 562.4,620.224 C 564.1,610.123 568.6750000000001,-93.258 569.6,-148.677 C 570.4,-207.277 568,-226.67700000000002 553,-278.677 C 485.132,-535.359 230.11399999999998,-714.706 -33.5,-696.977 Z" id="Контур_1" inkscape:label="Контур 1" style="fill-opacity:1.0;fill:rgb(255, 255, 255);fill-rule:nonzero" /></g></g></svg>