<?xml version='1.0' encoding='utf-8'?>
<svg xmlns:inkscape="http://www.inkscape.org/namespaces/inkscape" xmlns:sodipodi="http://sodipodi.sourceforge.net/DTD/sodipodi-0.dtd" xmlns="http://www.w3.org/2000/svg" width="512" height="512" viewBox="0 0 512 512" version="1.1" id="Композиция_1" sodipodi:docname="Композиция 1" inkscape:export-xdpi="96" inkscape:export-ydpi="96" style="fill: none; stroke: none"><defs /><sodipodi:namedview inkscape:pagecheckerboard="true" borderlayer="true" bordercolor="#666666" pagecolor="#ffffff" /><g inkscape:groupmode="layer" id="Слой_1" inkscape:label="Слой 1" transform="matrix(0.34534, 0.0, 0.0, 0.34534, 256.0, 255.47908084)" style=""><g id="Группа_1" inkscape:label="Группа 1" transform="matrix(0.9999997683384612, 0.0006806783557154519, -0.0006806783557154519, 0.9999997683384612, 0.0, 0.0)" style="fill-opacity:1.0;fill:rgb(255, 255, 255);fill-rule:nonzero"><path d="M 22,-57.5 C 64.354,-55.63 85.735,-34.73 89.502,4.499 C 90.5,16.9 91.89999999999999,118.6 93.1,267 C 93.69999999999999,336.1 93.60000000000001,344.59999999999997 92.2,350.2 C 75.921,391.96799999999996 53.042,402.122 -0.298,400.499 C -27.9,400.5 -37.4,399.59999999999997 -46.4,396.2 C -66.9,388.59999999999997 -84.0,370.2 -89.2,350.2 C -90.9,343.5 -90.8,306.6 -88.5,103.5 C -87.4,11.900000000000006 -86.7,-4.6 -83.7,-13.5 C -65.712,-61.541 -26.427,-59.808 22,-57.5 Z&#10;M 1.542,-537.443 C 191.341,-537.173 373.61400000000003,-398.656 406.999,-209 C 413.692,-233.317 411.248,368.33900000000006 412,507.021 C 396.26,548.309 265.2,461.5 255.9,442 C 243.70000000000002,416.5 243.9,419.0 244.3,332.5 C 244.4,292.6 251.033,26.197 244.702,-27.001 C 222.323,-147.03 123.215,-213.146 1.5,-208.498 C -120.184,-213.212 -219.36599999999999,-146.989 -241.7,-26.998 C -247.54299999999998,22.867 -252.436,441.215 -252.905,441.998 C -264.003,460.533 -274.0,474.8 -297.7,492.6 C -331.832,518.395 -389.209,526.887 -409,507 C -409,450.791 -408.6,165.5 -408.6,165.5 C -402.96200000000005,-102.351 -414.458,-160.135 -407.745,-198.899 C -365.253,-444.259 -176.478,-537.696 1.542,-537.443 Z&#10;M -32,-696.3 C -271.824,-683.7959999999999 -489.37499999999994,-511.59799999999996 -551.497,-277.996 C -566.5,-225.99999999999997 -565.3,222 -565,266 C -563.1,564.4 -562.6,610.8 -560.9,620.9 C -552.0,676.648 -503.763,699.757 -444.501,698 C -253.70899999999997,698.04 -221.941,549.364 -4.343,547.445 C 15.761,547.268 37.452,548.343 61.001,550.904 C 232.502,572.32 297.779,721.975 484.1,695.798 C 529.836,685.731 556.882,663.6179999999999 563.9,620.901 C 565.6,610.8 566.1,564.4 568,266 C 568.3,222 569.5,-226 554.5,-278 C 486.632,-534.682 231.61399999999998,-714.029 -32,-696.3 Z" id="Контур_1" inkscape:label="Контур 1" style="fill-opacity:1.0;fill:rgb(255, 255, 255);fill-rule:nonzero" /></g></g></svg>