<?xml version='1.0' encoding='utf-8'?>
<svg xmlns:inkscape="http://www.inkscape.org/namespaces/inkscape" xmlns:sodipodi="http://sodipodi.sourceforge.net/DTD/sodipodi-0.dtd" xmlns="http://www.w3.org/2000/svg" width="512" height="512" viewBox="0 0 512 512" version="1.1" id="Композиция_1" sodipodi:docname="Композиция 1" inkscape:export-xdpi="96" inkscape:export-ydpi="96" style="fill: none; stroke: none"><defs /><sodipodi:namedview inkscape:pagecheckerboard="true" borderlayer="true" bordercolor="#666666" pagecolor="#ffffff" /><g inkscape:groupmode="layer" id="Слой_3" inkscape:label="Слой 3" transform="matrix(1.0, 0.0, 0.0, 1.0, 212.661, 241.26)" opacity="0.0" style=""><g id="Группа_2" inkscape:label="Группа 2" transform="matrix(0.8316500000000001, 0.0, 0.0, 0.8316500000000001, -9.011, -0.9)" style="fill-opacity:1.0;fill:rgb(255, 255, 255);fill-rule:nonzero"><path d="M 15.921,-219.521 C 15.921,-219.521 69.802,-145.582 69.802,-145.582 C 90.96900000000001,-116.536 116.537,-90.96900000000001 145.583,-69.802 C 145.583,-69.802 219.521,-15.921 219.521,-15.921 C 230.31799999999998,-8.052999999999999 230.31799999999998,8.052999999999999 219.521,15.921 C 219.521,15.921 145.583,69.802 145.583,69.802 C 116.537,90.96900000000001 90.96900000000001,116.537 69.802,145.583 C 69.802,145.583 15.921,219.521 15.921,219.521 C 8.052999999999999,230.31799999999998 -8.052999999999999,230.31799999999998 -15.921,219.521 C -15.921,219.521 -69.802,145.583 -69.802,145.583 C -90.96900000000001,116.537 -116.536,90.96900000000001 -145.582,69.802 C -145.582,69.802 -219.521,15.921 -219.521,15.921 C -230.31799999999998,8.052999999999999 -230.31799999999998,-8.052999999999999 -219.521,-15.921 C -219.521,-15.921 -145.582,-69.802 -145.582,-69.802 C -116.536,-90.96900000000001 -90.96900000000001,-116.536 -69.802,-145.582 C -69.802,-145.582 -15.921,-219.521 -15.921,-219.521 C -8.052999999999999,-230.31799999999998 8.052999999999999,-230.31799999999998 15.921,-219.521 Z" id="Контур_1" inkscape:label="Контур 1" style="fill-opacity:1.0;fill:rgb(255, 255, 255);fill-rule:nonzero" /></g></g><g inkscape:groupmode="layer" id="g_1" inkscape:label="Слой 2 (копия)" transform="matrix(0.8036613293913831, -0.34224365244789384, 0.34224365244789384, 0.8036613293913831, 187.13698116241954, 328.0138318344608)" opacity="0.5" style=""><g id="g_2" inkscape:label="Группа 2" transform="matrix(0.8316500000000001, 0.0, 0.0, 0.8316500000000001, -9.011, -0.9)" style="fill-opacity:1.0;fill:rgb(255, 255, 255);fill-rule:nonzero"><path d="M 15.921,-219.521 C 15.921,-219.521 69.802,-145.582 69.802,-145.582 C 90.96900000000001,-116.536 116.537,-90.96900000000001 145.583,-69.802 C 145.583,-69.802 219.521,-15.921 219.521,-15.921 C 230.31799999999998,-8.052999999999999 230.31799999999998,8.052999999999999 219.521,15.921 C 219.521,15.921 145.583,69.802 145.583,69.802 C 116.537,90.96900000000001 90.96900000000001,116.537 69.802,145.583 C 69.802,145.583 15.921,219.521 15.921,219.521 C 8.052999999999999,230.31799999999998 -8.052999999999999,230.31799999999998 -15.921,219.521 C -15.921,219.521 -69.802,145.583 -69.802,145.583 C -90.96900000000001,116.537 -116.536,90.96900000000001 -145.582,69.802 C -145.582,69.802 -219.521,15.921 -219.521,15.921 C -230.31799999999998,8.052999999999999 -230.31799999999998,-8.052999999999999 -219.521,-15.921 C -219.521,-15.921 -145.582,-69.802 -145.582,-69.802 C -116.536,-90.96900000000001 -90.96900000000001,-116.536 -69.802,-145.582 C -69.802,-145.582 -15.921,-219.521 -15.921,-219.521 C -8.052999999999999,-230.31799999999998 8.052999999999999,-230.31799999999998 15.921,-219.521 Z" id="path_3" inkscape:label="Контур 1" style="fill-opacity:1.0;fill:rgb(255, 255, 255);fill-rule:nonzero" /></g></g><g inkscape:groupmode="layer" id="Слой_2" inkscape:label="Слой 2" transform="matrix(0.9414384667282569, 0.19904440676479368, -0.19904440676479368, 0.9414384667282569, 330.0055509455846, 221.46135854465047)" style=""><g id="g_4" inkscape:label="Группа 2" transform="matrix(0.8316500000000001, 0.0, 0.0, 0.8316500000000001, -9.011, -0.9)" style="fill-opacity:1.0;fill:rgb(255, 255, 255);fill-rule:nonzero"><path d="M 15.921,-219.521 C 15.921,-219.521 69.802,-145.582 69.802,-145.582 C 90.96900000000001,-116.536 116.537,-90.96900000000001 145.583,-69.802 C 145.583,-69.802 219.521,-15.921 219.521,-15.921 C 230.31799999999998,-8.052999999999999 230.31799999999998,8.052999999999999 219.521,15.921 C 219.521,15.921 145.583,69.802 145.583,69.802 C 116.537,90.96900000000001 90.96900000000001,116.537 69.802,145.583 C 69.802,145.583 15.921,219.521 15.921,219.521 C 8.052999999999999,230.31799999999998 -8.052999999999999,230.31799999999998 -15.921,219.521 C -15.921,219.521 -69.802,145.583 -69.802,145.583 C -90.96900000000001,116.537 -116.536,90.96900000000001 -145.582,69.802 C -145.582,69.802 -219.521,15.921 -219.521,15.921 C -230.31799999999998,8.052999999999999 -230.31799999999998,-8.052999999999999 -219.521,-15.921 C -219.521,-15.921 -145.582,-69.802 -145.582,-69.802 C -116.536,-90.96900000000001 -90.96900000000001,-116.536 -69.802,-145.582 C -69.802,-145.582 -15.921,-219.521 -15.921,-219.521 C -8.052999999999999,-230.31799999999998 8.052999999999999,-230.31799999999998 15.921,-219.521 Z" id="path_5" inkscape:label="Контур 1" style="fill-opacity:1.0;fill:rgb(255, 255, 255);fill-rule:nonzero" /></g></g></svg>