<?xml version='1.0' encoding='utf-8'?>
<svg xmlns:inkscape="http://www.inkscape.org/namespaces/inkscape" xmlns:sodipodi="http://sodipodi.sourceforge.net/DTD/sodipodi-0.dtd" xmlns="http://www.w3.org/2000/svg" width="512" height="512" viewBox="0 0 512 512" version="1.1" id="Композиция_1" sodipodi:docname="Композиция 1" inkscape:export-xdpi="96" inkscape:export-ydpi="96" style="fill: none; stroke: none"><defs><radialGradient cx="0" cy="0" r="254.0" fx="-25.0" fy="0.0" id="sdkfjskf12" inkscape:label="sdkfjskf12" gradientUnits="userSpaceOnUse"><stop offset="0%" stop-color="rgb(255, 255, 255)" stop-opacity="1" /><stop offset="40.400000000000006%" stop-color="rgb(255, 255, 255)" stop-opacity="0.5" /><stop offset="100%" stop-color="rgb(255, 255, 255)" stop-opacity="0" /></radialGradient><radialGradient cx="0" cy="0" r="254.0" fx="-25.0" fy="0.0" id="radialGradient_1" inkscape:label="sdkfjskf12" gradientUnits="userSpaceOnUse"><stop offset="0%" stop-color="rgb(255, 255, 255)" stop-opacity="1" /><stop offset="40.400000000000006%" stop-color="rgb(255, 255, 255)" stop-opacity="0.5" /><stop offset="100%" stop-color="rgb(255, 255, 255)" stop-opacity="0" /></radialGradient></defs><sodipodi:namedview inkscape:pagecheckerboard="true" borderlayer="true" bordercolor="#666666" pagecolor="#ffffff" /><g inkscape:groupmode="layer" id="grad" inkscape:label="grad" transform="matrix(0.95635, 0.0, 0.0, 0.95635, 74.0, 256.0)" opacity="0.4" style=""><g id="Группа_1" inkscape:label="Группа 1" transform="matrix(1.1206699999999998, 0.0, 0.0, 1.08241, -72.078, 0.0)" opacity="0.4" style="fill-opacity:1.0;fill:url(#sdkfjskf12);fill-rule:nonzero"><path d="M 254,0 C 254,140.28 140.28,254 0,254 C -140.28,254 -254,140.28 -254,0 C -254,-140.28 -140.28,-254 0,-254 C 140.28,-254 254,-140.28 254,0 Z" id="Контур_1" inkscape:label="Контур 1" style="fill-opacity:1.0;fill:url(#radialGradient_1);fill-rule:nonzero" /></g></g><g inkscape:groupmode="layer" id="карты" inkscape:label="карты" transform="matrix(0.52998, 0.0, 0.0, 0.52998, -289.20398486, 114.84750692)" style=""><g id="g_2" inkscape:label="Группа 1" transform="matrix(1.0, 0.0, 0.0, 1.0, 269.973, 258.85)" style="fill-opacity:1.0;fill:rgb(255, 255, 255);fill-rule:nonzero"><path d="M 15.921,-219.521 C 15.921,-219.521 69.802,-145.582 69.802,-145.582 C 90.96900000000001,-116.536 116.537,-90.96900000000001 145.583,-69.802 C 145.583,-69.802 219.521,-15.921 219.521,-15.921 C 230.31799999999998,-8.052999999999999 230.31799999999998,8.052999999999999 219.521,15.921 C 219.521,15.921 145.583,69.802 145.583,69.802 C 116.537,90.96900000000001 90.96900000000001,116.537 69.802,145.583 C 69.802,145.583 15.921,219.521 15.921,219.521 C 8.052999999999999,230.31799999999998 -8.052999999999999,230.31799999999998 -15.921,219.521 C -15.921,219.521 -69.802,145.583 -69.802,145.583 C -90.96900000000001,116.537 -116.536,90.96900000000001 -145.582,69.802 C -145.582,69.802 -219.521,15.921 -219.521,15.921 C -230.31799999999998,8.052999999999999 -230.31799999999998,-8.052999999999999 -219.521,-15.921 C -219.521,-15.921 -145.582,-69.802 -145.582,-69.802 C -116.536,-90.96900000000001 -90.96900000000001,-116.536 -69.802,-145.582 C -69.802,-145.582 -15.921,-219.521 -15.921,-219.521 C -8.052999999999999,-230.31799999999998 8.052999999999999,-230.31799999999998 15.921,-219.521 Z" id="path_3" inkscape:label="Контур 1" style="fill-opacity:1.0;fill:rgb(255, 255, 255);fill-rule:nonzero" /></g></g><g inkscape:groupmode="layer" id="подарок_2" inkscape:label="подарок 2" transform="matrix(0.6088202132747219, 0.0, 0.0, 0.6088202132747219, -240.4931375706758, 96.63822805197287)" style=""><g id="Группа_3" inkscape:label="Группа 3" transform="matrix(0.30606, 0.0, 0.0, 0.30606, 249.996, 251.121)" style="fill-opacity:1.0;fill:rgb(255, 255, 255);fill-rule:nonzero"><path d="M 20.5,-57.839 C 46.3,-56.039 57.2,-51.839 70,-38.839 C 81.5,-27.038999999999998 86.6,-15.039 88,4.161 C 89,16.561 90.39999999999999,118.261 91.6,266.661 C 92.19999999999999,335.76099999999997 92.10000000000001,344.26099999999997 90.7,349.861 C 85.5,369.961 68.4,388.261 47.7,395.961 C 39.300000000000004,399.161 27.5,400.161 -1.8,400.161 C -29.400000000000002,400.161 -38.9,399.26099999999997 -47.9,395.861 C -68.4,388.26099999999997 -85.5,369.861 -90.7,349.861 C -92.4,343.161 -92.3,306.26099999999997 -90,103.161 C -88.9,11.561000000000007 -88.2,-4.939 -85.2,-13.839 C -77.8,-35.239 -60.4,-51.739 -41,-55.939 C -29.2,-58.439 -1.8000000000000007,-59.339 20.5,-57.839 Z&#10;M 35,-536.739 C 161.9,-525.239 267.6,-469.93899999999996 334.1,-380.339 C 370.0,-332.039 392.3,-278.639 405.5,-209.339 C 409.8,-187.039 409.70000000000005,-192.339 410.1,165.161 C 410.1,165.161 410.5,506.661 410.5,506.661 C 410.5,506.661 408.1,511.961 408.1,511.961 C 403.40000000000003,522.361 394.9,526.6610000000001 379,526.561 C 355.8,526.361 329.9,515.261 299.2,492.261 C 275.5,474.461 263.7,461.161 254.4,441.661 C 242.20000000000002,416.161 242.4,418.661 242.8,332.161 C 242.9,292.261 243.2,255.161 243.5,249.661 C 244.0,237.761 245.5,68.161 245.5,19.161 C 245.5,-12.538999999999998 245.29999999999998,-16.339 243.2,-27.339 C 234.7,-72.439 215.79999999999998,-110.239 187.1,-140.139 C 164.4,-163.639 140.5,-179.639 110.6,-191.339 C 78.19999999999999,-204.039 47.9,-208.839 0,-208.839 C -47.9,-208.839 -78.19999999999999,-204.039 -110.6,-191.339 C -140.5,-179.639 -164.4,-163.639 -187.1,-140.139 C -215.79999999999998,-110.239 -234.7,-72.439 -243.2,-27.339 C -245.29999999999998,-16.339 -245.5,-12.538999999999998 -245.5,19.161 C -245.5,68.161 -244.0,237.761 -243.5,249.661 C -243.2,255.161 -242.9,292.261 -242.8,332.161 C -242.4,418.661 -242.20000000000002,416.161 -254.4,441.661 C -263.7,461.161 -275.5,474.461 -299.2,492.261 C -329.9,515.261 -355.8,526.361 -379,526.561 C -394.9,526.6610000000001 -403.40000000000003,522.361 -408.1,511.961 C -408.1,511.961 -410.5,506.661 -410.5,506.661 C -410.5,506.661 -410.1,165.161 -410.1,165.161 C -409.70000000000005,-192.339 -409.8,-187.039 -405.5,-209.339 C -396.6,-256.439 -385.9,-289.139 -367.5,-325.939 C -334.0,-392.939 -283.4,-445.339 -215.8,-483.339 C -164.4,-512.139 -97.5,-531.739 -33,-536.839 C -25.6,-537.4390000000001 -17.5,-538.039 -15,-538.239 C -8.1,-538.839 22.1,-537.9390000000001 35,-536.739 Z&#10;M -33.5,-696.639 C -51.3,-695.639 -92.4,-690.039 -113.5,-685.739 C -210.5,-666.039 -295.8,-625.239 -371.5,-562.239 C -387.6,-548.839 -422.09999999999997,-514.539 -436.2,-497.839 C -490.7,-433.23900000000003 -529.3,-360.73900000000003 -553,-278.339 C -568,-226.339 -570.4,-206.939 -569.6,-148.339 C -569.3000000000001,-126.939 -568.8,-67.039 -568.5,-15.339 C -568.2,36.361000000000004 -567.8,102.761 -567.5,132.161 C -567.2,161.561 -566.8,221.661 -566.5,265.661 C -564.6,564.0609999999999 -564.1,610.461 -562.4,620.561 C -560.5,631.961 -556.8,643.261 -552.8,650.361 C -539.4,673.661 -516.1,688.561 -482.6,695.461 C -472.8,697.361 -468.5,697.661 -446,697.661 C -419,697.661 -408.2,696.6610000000001 -381,691.561 C -354.2,686.561 -332.7,679.261 -313,668.361 C -295.7,658.761 -264.3,640.361 -255.6,634.661 C -247.2,629.161 -236.2,622.361 -210,606.361 C -194.2,596.761 -164.8,581.861 -146,573.861 C -115.8,561.061 -78.6,551.9609999999999 -45.4,549.161 C -26.0,547.4609999999999 44.4,548.461 59.5,550.561 C 90.0,554.7610000000001 119.6,562.761 146,573.861 C 164.6,581.761 194.1,596.661 210,606.361 C 236.2,622.361 247.2,629.161 255.6,634.661 C 264.3,640.361 295.7,658.761 313,668.361 C 332.7,679.261 354.2,686.561 381,691.561 C 408.2,696.6610000000001 419,697.661 446,697.661 C 468.5,697.661 472.8,697.361 482.6,695.461 C 516.1,688.561 539.4,673.661 552.8,650.361 C 556.8,643.261 560.5,631.961 562.4,620.561 C 564.1,610.461 564.6,564.0609999999999 566.5,265.661 C 566.8,221.661 567.2,161.561 567.5,132.161 C 567.8,102.761 568.2,36.361000000000004 568.5,-15.339 C 568.8,-67.039 569.3000000000001,-126.939 569.6,-148.339 C 570.4,-206.939 568,-226.339 553,-278.339 C 529.3,-360.73900000000003 490.7,-433.23900000000003 436.2,-497.839 C 422.09999999999997,-514.539 387.6,-548.839 371.5,-562.239 C 314.4,-609.739 254.6,-643.239 185.5,-666.339 C 148.0,-678.9390000000001 116.1,-686.339 73.5,-692.239 C 35.7,-697.539 3.799999999999997,-698.839 -33.5,-696.639 Z" id="path_4" inkscape:label="Контур 1" style="fill-opacity:1.0;fill:rgb(255, 255, 255);fill-rule:nonzero" /></g></g></svg>