<?xml version='1.0' encoding='utf-8'?>
<svg xmlns:inkscape="http://www.inkscape.org/namespaces/inkscape" xmlns:sodipodi="http://sodipodi.sourceforge.net/DTD/sodipodi-0.dtd" xmlns="http://www.w3.org/2000/svg" width="512" height="512" viewBox="0 0 512 512" version="1.1" id="TON_шейпы" sodipodi:docname="TON_шейпы" inkscape:export-xdpi="96" inkscape:export-ydpi="96" style="fill: none; stroke: none"><defs /><sodipodi:namedview inkscape:pagecheckerboard="true" borderlayer="true" bordercolor="#666666" pagecolor="#ffffff" /><g inkscape:groupmode="layer" id="Кривые_Слой_1" inkscape:label="Кривые Слой 1" transform="matrix(0.75, 0.0, 0.0, 0.75, 233.3125, 100.47725)" style=""><g id="Группа_1" inkscape:label="Группа 1" transform="matrix(1.0, 0.0, 0.0, 1.0, 30.25, 199.641)" style="fill-opacity:1.0;fill:rgb(79, 169, 248);fill-rule:nonzero"><path d="M 0.179,217.605 C 0.179,217.605 0.179,217.605 0.179,217.605 C -16.389000000000003,217.605 -29.821,204.17399999999998 -29.821,187.605 C -29.821,187.605 -30,-198.677 -30,-198.677 C -30,-198.677 30,-198.677 30,-198.677 C 30,-198.677 30.179,187.605 30.179,187.605 C 30.179,204.17399999999998 16.747,217.605 0.179,217.605 Z" id="Контур_1" inkscape:label="Контур 1" style="fill-opacity:1.0;fill:rgb(79, 169, 248);fill-rule:nonzero" /></g></g><g inkscape:groupmode="layer" id="лого_2" inkscape:label="лого 2" transform="matrix(0.75, 0.0, 0.0, 0.75, 70.35774999999998, 81.60874999999999)" style=""><g id="g_1" inkscape:label="Группа 1" transform="matrix(1.0, 0.0, 0.0, 1.0, 247.817, 243.31)" style="fill-opacity:1.0;fill:rgb(79, 169, 248);fill-rule:nonzero"><path d="M 0.032,183.305 C 0.032,183.305 0.231,183.305 0.231,183.305 C 0.231,183.305 0.269,183.241 0.269,183.241 C 0.269,183.241 177.983,-124.778 177.983,-124.778 C 188.09300000000002,-142.30100000000002 181.38400000000001,-157.70000000000002 178.03,-163.507 C 170.958,-175.751 158.277,-183.06 144.105,-183.06 C 144.105,-183.06 94.988,-183.06 94.988,-183.06 C 94.988,-183.06 7.821,-183.06 7.821,-183.06 C 7.821,-183.06 5.658,-183.06 5.658,-183.06 C 5.658,-183.06 3.839,-183.06 3.839,-183.06 C 3.839,-183.06 -35.806,-183.06 -35.806,-183.06 C -35.806,-183.06 -143.877,-183.06 -143.877,-183.06 C -158.02300000000002,-183.06 -170.693,-175.744 -177.769,-163.49 C -181.127,-157.67600000000002 -187.847,-142.265 -177.757,-124.78 C -177.757,-124.78 -0.012,183.233 -0.012,183.233 C -0.012,183.233 0.032,183.305 0.032,183.305 Z&#10;M 0.131,243.31 C 0.131,243.31 0.131,243.31 0.131,243.31 C -21.634999999999998,243.31 -41.117999999999995,232.059 -51.985,213.212 C -51.985,213.212 -229.725,-94.791 -229.725,-94.791 C -247.565,-125.70599999999999 -247.567,-162.60500000000002 -229.728,-193.495 C -211.805,-224.531 -179.711,-243.06 -143.877,-243.06 C -143.877,-243.06 -54.287,-243.06 -54.287,-243.06 C -54.287,-243.06 9.403,-243.06 9.403,-243.06 C 9.403,-243.06 89.071,-243.06 89.071,-243.06 C 89.071,-243.06 144.105,-243.06 144.105,-243.06 C 179.963,-243.06 212.06799999999998,-224.539 229.986,-193.515 C 247.81699999999998,-162.641 247.805,-125.736 229.952,-94.793 C 229.952,-94.793 52.243,213.219 52.243,213.219 C 41.38,232.058 21.896,243.31 0.131,243.31 Z" id="path_2" inkscape:label="Контур 1" style="fill-opacity:1.0;fill:rgb(79, 169, 248);fill-rule:nonzero" /></g></g></svg>