<?xml version='1.0' encoding='utf-8'?>
<svg xmlns:inkscape="http://www.inkscape.org/namespaces/inkscape" xmlns:sodipodi="http://sodipodi.sourceforge.net/DTD/sodipodi-0.dtd" xmlns="http://www.w3.org/2000/svg" width="512" height="512" viewBox="0 0 512 512" version="1.1" id="Композиция_1" sodipodi:docname="Композиция 1" inkscape:export-xdpi="96" inkscape:export-ydpi="96" style="fill: none; stroke: none"><defs /><sodipodi:namedview inkscape:pagecheckerboard="true" borderlayer="true" bordercolor="#666666" pagecolor="#ffffff" /><g inkscape:groupmode="layer" id="portal1" inkscape:label="portal1" transform="matrix(0.34694, 0.0, 0.0, 0.34694, 256.0, 255.43960244)" style=""><g id="Группа_1" inkscape:label="Группа 1" transform="matrix(0.9999997683384612, 0.0006806783557154519, -0.0006806783557154519, 0.9999997683384612, 0.0, 0.0)" style="fill-opacity:1.0;fill:rgb(255, 255, 255);fill-rule:nonzero"><g id="g_1" inkscape:label="Группа 1" transform="matrix(1.0, 0.0, 0.0, 1.0, 0.0, 0.0)" style=""><path d="M 323.006,-199.599 C 466.84,-290.647 534.201,30.576999999999998 349.669,212.792 C 243.65699999999998,317.472 -98.28199999999998,520.178 -372.209,54.515 C -419.746,84.053 -444.31600000000003,292.902 -165.893,491.142 C -319.416,425.991 -451.67699999999996,268.26 -460.054,107.271 C -472.98199999999997,-141.176 -331.591,-288.811 -193.472,-280.895 C -77.807,-274.26599999999996 -259.416,-213.072 -223.729,-69.265 C -167.89800000000002,155.71699999999998 8.962999999999994,152.239 108.428,101.997 C 204.754,53.34 290.28499999999997,-135.536 211.887,-268.498 C 147.602,-377.526 -106.47199999999998,-589.587 -426.695,-340.748 C -477.086,-301.59 -558.978,-210.793 -591.231,-84.739 C -581.501,-212.84 -489.051,-337.94399999999996 -386.077,-418.049 C -212.944,-552.732 -2.114999999999995,-505.476 61.142,-479.412 C 186.326,-427.832 288.703,-296.78999999999996 323.006,-199.599 Z&#10;M 15.093,-587.78 C -44.863,-584.654 -92.604,-580.849 -132.822,-575.211 C -173.04000000000002,-569.573 -205.73600000000002,-562.1030000000001 -235.603,-551.647 C -265.47,-541.191 -292.508,-527.748 -321.411,-510.166 C -350.314,-492.584 -381.082,-470.86199999999997 -418.407,-443.847 C -460.716,-413.22499999999997 -495.008,-378.741 -522.804,-343.381 C -550.6,-308.02099999999996 -571.9010000000001,-271.784 -588.229,-237.656 C -604.557,-203.52800000000002 -615.913,-171.51000000000002 -623.819,-144.586 C -631.7249999999999,-117.662 -636.182,-95.832 -638.711,-82.082 C -646.294,-40.855999999999995 -648.499,-0.30299999999999727 -646.561,39.337 C -644.623,78.977 -638.543,117.703 -629.557,155.276 C -620.571,192.84900000000002 -608.6790000000001,229.27000000000004 -595.118,264.297 C -581.557,299.324 -566.325,332.957 -550.662,364.957 C -504.65500000000003,458.948 -416.147,537.529 -331.734,592.393 C -247.32,647.2570000000001 -167.001,678.402 -137.37,677.524 C -222.25,633.659 -343.047,544.3290000000001 -435.982,428.593 C -528.917,312.857 -593.988,170.715 -567.416,21.227 C -549.888,-77.37899999999999 -528.327,-132.313 -513.76,-146.469 C -499.193,-160.625 -491.621,-134.00400000000002 -502.072,-69.5 C -502.883,-22.412999999999997 -514.647,87.80599999999998 -470.254,207.867 C -425.861,327.928 -325.31100000000004,457.83000000000004 -101.495,544.282 C 47.535,601.847 224.42600000000002,580.4639999999999 374.273,514.154 C 524.12,447.844 646.922,336.60699999999997 687.775,214.462 C 515.881,451.27 277.991,511.806 120.247,510.046 C -37.497,508.286 -115.09599999999999,444.229 33.592,431.851 C 302.42699999999996,409.47 447.082,279.52200000000005 517.314,131.412 C 587.5459999999999,-16.698000000000008 583.356,-182.97099999999998 554.498,-278.001 C 499.90900000000005,-457.77099999999996 367.427,-579.6899999999999 247.408,-634.429 C 127.38899999999998,-689.168 19.831,-676.727 15.093,-587.78 Z" id="Контур_2" inkscape:label="Контур 2" style="" /></g><g id="Группа_2" inkscape:label="Группа 2" transform="matrix(1.0, 0.0, 0.0, 1.0, 0.0, 0.0)" style=""><path d="M -77.306,-97.427 C -55.284,-159.604 -10.86,-129.052 41.385,-148.042 C 90.092,-165.747 80.878,-240.48199999999997 59.316,-272.527 C 35.173,-308.409 -8.190999999999999,-341.835 -35.772,-353.13 C -94.304,-377.099 -125.923,-371.524 -156.934,-370.398 C -235.516,-367.545 -251.005,-418.125 -132.397,-422.816 C -57.33099999999999,-425.78499999999997 8.678999999999995,-396.845 50.032,-374.629 C 145.375,-323.408 194.51600000000002,-186.222 154.133,-102.278 C 114.71700000000001,-20.345 57.331,8.294 -0.775,3.904 C -33.102,1.4619999999999997 -97.874,-39.354000000000006 -77.306,-97.427 Z" id="Контур_1" inkscape:label="Контур 1" style="" /></g></g></g></svg>